<?xml version="1.0" encoding="UTF-8"?>
<svg xmlns="http://www.w3.org/2000/svg" xmlns:xlink="http://www.w3.org/1999/xlink" width="13pt" height="13pt" viewBox="0 0 13 13" version="1.1">
<g id="surface1372187">
<path style=" stroke:none;fill-rule:nonzero;fill:rgb(6.27451%,9.411765%,18.431373%);fill-opacity:1;" d="M 10.773438 4.570312 C 10.746094 4.539062 10.734375 4.5 10.734375 4.460938 C 10.359375 3.796875 10.335938 2.988281 9.960938 2.324219 C 8.902344 2.921875 8.179688 3.980469 7.488281 4.945312 C 7.070312 5.523438 6.699219 6.121094 6.355469 6.75 C 6.011719 7.378906 5.675781 8.015625 5.289062 8.621094 C 5.234375 8.710938 5.089844 8.75 5.027344 8.640625 C 4.84375 8.304688 4.640625 7.976562 4.402344 7.671875 C 4.199219 7.410156 3.96875 7.175781 3.761719 6.917969 C 3.4375 6.519531 3.09375 6.042969 2.644531 5.765625 C 2.484375 6.300781 2.292969 6.828125 2.207031 7.382812 C 2.832031 7.785156 3.3125 8.367188 3.769531 8.945312 C 4.308594 9.621094 4.863281 10.265625 5.46875 10.882812 C 5.859375 10.371094 6.128906 9.777344 6.453125 9.222656 C 6.835938 8.570312 7.285156 7.96875 7.757812 7.382812 C 8.234375 6.792969 8.78125 6.273438 9.332031 5.757812 C 9.59375 5.515625 9.898438 5.320312 10.175781 5.097656 C 10.382812 4.929688 10.585938 4.757812 10.777344 4.574219 C 10.777344 4.574219 10.777344 4.574219 10.773438 4.570312 Z M 10.773438 4.570312 "/>
<path style=" stroke:none;fill-rule:nonzero;fill:rgb(100%,100%,100%);fill-opacity:1;" d="M 11.074219 4.324219 L 11.003906 4.324219 C 10.589844 3.621094 10.59375 2.734375 10.140625 2.042969 C 10.09375 1.964844 10.003906 1.960938 9.929688 2 C 8.773438 2.585938 7.996094 3.71875 7.257812 4.746094 C 6.835938 5.335938 6.457031 5.9375 6.105469 6.574219 C 5.792969 7.140625 5.496094 7.710938 5.15625 8.265625 C 5.003906 8 4.835938 7.746094 4.652344 7.503906 C 4.445312 7.230469 4.199219 6.988281 3.984375 6.722656 C 3.597656 6.25 3.1875 5.683594 2.621094 5.414062 C 2.527344 5.371094 2.433594 5.429688 2.40625 5.523438 C 2.230469 6.125 2.003906 6.714844 1.910156 7.335938 C 1.910156 7.339844 1.910156 7.339844 1.910156 7.34375 C 1.859375 7.414062 1.855469 7.527344 1.949219 7.585938 C 2.621094 7.980469 3.117188 8.621094 3.597656 9.222656 C 4.15625 9.925781 4.746094 10.597656 5.378906 11.234375 C 5.4375 11.292969 5.542969 11.277344 5.59375 11.21875 C 6.03125 10.695312 6.324219 10.078125 6.65625 9.488281 C 7.027344 8.832031 7.46875 8.210938 7.953125 7.628906 C 8.441406 7.046875 8.96875 6.519531 9.523438 6.003906 C 9.789062 5.757812 10.097656 5.554688 10.382812 5.328125 C 10.609375 5.148438 10.832031 4.957031 11.039062 4.75 C 11.097656 4.738281 11.148438 4.695312 11.15625 4.632812 C 11.171875 4.617188 11.1875 4.597656 11.203125 4.582031 C 11.300781 4.472656 11.203125 4.324219 11.074219 4.324219 Z M 10.175781 5.105469 C 9.898438 5.324219 9.59375 5.523438 9.332031 5.765625 C 8.78125 6.277344 8.230469 6.796875 7.757812 7.386719 C 7.285156 7.976562 6.835938 8.574219 6.453125 9.230469 C 6.128906 9.78125 5.859375 10.378906 5.46875 10.886719 C 4.863281 10.273438 4.304688 9.625 3.769531 8.949219 C 3.3125 8.375 2.832031 7.789062 2.210938 7.386719 C 2.292969 6.832031 2.484375 6.304688 2.644531 5.769531 C 3.09375 6.046875 3.4375 6.527344 3.761719 6.925781 C 3.96875 7.179688 4.199219 7.414062 4.402344 7.675781 C 4.640625 7.980469 4.84375 8.308594 5.027344 8.644531 C 5.089844 8.757812 5.234375 8.714844 5.289062 8.628906 C 5.675781 8.019531 6.011719 7.382812 6.355469 6.753906 C 6.699219 6.125 7.070312 5.53125 7.488281 4.949219 C 8.179688 3.984375 8.90625 2.921875 9.960938 2.332031 C 10.335938 2.992188 10.359375 3.804688 10.734375 4.464844 C 10.734375 4.503906 10.746094 4.542969 10.773438 4.574219 C 10.773438 4.578125 10.777344 4.582031 10.777344 4.582031 C 10.585938 4.761719 10.382812 4.9375 10.175781 5.101562 Z M 10.175781 5.105469 "/>
</g>
</svg>
